<svg t="1679152933542" class="icon" viewBox="0 0 1024 1024" version="1.1" xmlns="http://www.w3.org/2000/svg" p-id="3611"
     width="24" height="24">
    <path d="M924.16 934.4H99.84a25.6 25.6 0 0 1-25.6-25.6V340.48a25.6 25.6 0 0 1 25.6-25.6h96.64V196.48a25.6 25.6 0 0 1 25.6-25.6h76.8V89.6h424.96v81.28h76.8a25.6 25.6 0 0 1 25.6 25.6v118.4h96.64a25.6 25.6 0 0 1 25.6 25.6v568.32a25.6 25.6 0 0 1-24.32 25.6zM99.84 340.48v568.32h824.32V340.48h-97.28a25.6 25.6 0 0 1-25.6-25.6V196.48h-102.4V115.2H325.12v81.28H222.08v118.4a25.6 25.6 0 0 1-25.6 25.6z"
          fill="#999999" p-id="3612"></path>
    <path d="M250.88 803.2H320v-110.72a52.48 52.48 0 0 1 105.6 0v111.36h35.2v-111.36a52.48 52.48 0 0 1 105.6 0v111.36h35.2v-111.36a52.48 52.48 0 1 1 105.6 0v111.36h67.84V448H250.88z m0 0"
          fill="#999999" p-id="3613"></path>
    <path d="M950.4 1011.2H73.6A75.52 75.52 0 0 1 0 935.68V313.6a75.52 75.52 0 0 1 73.6-75.52h46.72V170.24a75.52 75.52 0 0 1 75.52-75.52h26.88v-6.4A75.52 75.52 0 0 1 298.24 12.8h427.52a75.52 75.52 0 0 1 75.52 75.52v6.4h26.88a75.52 75.52 0 0 1 75.52 75.52v67.84h46.72A75.52 75.52 0 0 1 1024 313.6v622.08a75.52 75.52 0 0 1-73.6 75.52zM73.6 276.48a37.12 37.12 0 0 0-37.12 37.12v622.08a37.12 37.12 0 0 0 37.12 37.12h876.8a37.12 37.12 0 0 0 37.12-37.12V313.6a37.12 37.12 0 0 0-37.12-37.12h-85.12V170.24a37.12 37.12 0 0 0-37.12-37.12h-64v-44.8a37.12 37.12 0 0 0-38.4-37.12H298.24a37.12 37.12 0 0 0-37.12 37.12v44.8h-64a37.12 37.12 0 0 0-37.12 37.12v106.24z"
          fill="#999999" p-id="3614"></path>
    <path d="M819.2 871.68H204.8a38.4 38.4 0 0 1-38.4-38.4V414.72a38.4 38.4 0 0 1 38.4-38.4h614.4a38.4 38.4 0 0 1 38.4 38.4V832a38.4 38.4 0 0 1-38.4 39.68zM204.8 401.92a12.8 12.8 0 0 0-12.8 12.8V832a12.8 12.8 0 0 0 12.8 12.8h614.4a12.8 12.8 0 0 0 12.8-12.8V414.72a12.8 12.8 0 0 0-12.8-12.8z"
          fill="#999999" p-id="3615"></path>
</svg>